<svg xmlns="http://www.w3.org/2000/svg" xmlns:xlink="http://www.w3.org/1999/xlink" style="isolation:isolate" width="500" height="500" viewBox="0 0 500 500"><defs><clipPath id="_clipPath_oyQXRggMqvN6tXRJD1jqJLuMG7Q8TsZl"><rect width="500" height="500"/></clipPath></defs><g clip-path="url(#_clipPath_oyQXRggMqvN6tXRJD1jqJLuMG7Q8TsZl)"><g><circle cx="250" cy="250" r="250" fill="#FFF" vector-effect="non-scaling-stroke"/><g><g><path fill="#F16272" fill-rule="evenodd" d="M 177.115 88.129 C 177.115 14.839 209.747 88.129 250 88.129 C 290.253 88.129 322.885 14.839 322.885 88.129 C 322.885 161.42 290.253 220.833 250 220.833 C 209.747 220.833 177.115 161.42 177.115 88.129 L 177.115 88.129 Z"/><path fill="#F16272" fill-rule="evenodd" d="M 177.115 411.871 C 177.115 485.161 209.747 411.871 250 411.871 C 290.253 411.871 322.885 485.161 322.885 411.871 C 322.885 338.58 290.253 279.167 250 279.167 C 209.747 279.167 177.115 338.58 177.115 411.871 L 177.115 411.871 Z"/><path fill="#F16272" fill-rule="evenodd" d="M 411.822 177.115 C 485.113 177.115 411.822 209.747 411.822 250 C 411.822 290.253 485.113 322.885 411.822 322.885 C 338.532 322.885 279.118 290.253 279.118 250 C 279.118 209.747 338.532 177.115 411.822 177.115 L 411.822 177.115 Z"/><path fill="#F16272" fill-rule="evenodd" d="M 88.178 322.885 C 14.887 322.885 88.178 290.253 88.178 250 C 88.178 209.747 14.887 177.115 88.178 177.115 C 161.468 177.115 220.882 209.747 220.882 250 C 220.882 290.253 161.468 322.885 88.178 322.885 L 88.178 322.885 Z"/><ellipse cx="250" cy="177.083" fill="#FFF" rx="19.436" ry="19.444" vector-effect="non-scaling-stroke"/><ellipse cx="322.885" cy="250" fill="#FFF" rx="19.436" ry="19.444" vector-effect="non-scaling-stroke"/><ellipse cx="177.115" cy="250" fill="#FFF" rx="19.436" ry="19.444" vector-effect="non-scaling-stroke"/><ellipse cx="250" cy="322.917" fill="#FFF" rx="19.436" ry="19.444" vector-effect="non-scaling-stroke"/></g></g></g></g></svg>