<svg xmlns="http://www.w3.org/2000/svg" xmlns:xlink="http://www.w3.org/1999/xlink" style="isolation:isolate" width="500" height="500" viewBox="0 0 500 500"><defs><clipPath id="_clipPath_cy9mlpeAiwE0EtYYqg8p1r1eEA10yi4Q"><rect width="500" height="500"/></clipPath></defs><g clip-path="url(#_clipPath_cy9mlpeAiwE0EtYYqg8p1r1eEA10yi4Q)"><defs><filter id="5QlvbWM2HrQl5mRPDSKhBKi5QrFzdem5" width="400%" height="400%" x="-200%" y="-200%" color-interpolation-filters="sRGB" filterUnits="objectBoundingBox"><feGaussianBlur xmlns="http://www.w3.org/2000/svg" in="SourceGraphic" stdDeviation="1.288"/><feOffset xmlns="http://www.w3.org/2000/svg" dx="0" dy="0" result="pf_100_offsetBlur"/><feFlood xmlns="http://www.w3.org/2000/svg" flood-color="#000" flood-opacity=".65"/><feComposite xmlns="http://www.w3.org/2000/svg" in2="pf_100_offsetBlur" operator="in" result="pf_100_dropShadow"/><feBlend xmlns="http://www.w3.org/2000/svg" in="SourceGraphic" in2="pf_100_dropShadow" mode="normal"/></filter></defs><g filter="url(#5QlvbWM2HrQl5mRPDSKhBKi5QrFzdem5)"><circle cx="250" cy="250" r="225" fill="#F16272" vector-effect="non-scaling-stroke"/></g><g><g><path fill="#FFF" fill-rule="evenodd" d="M 193.774 125.128 C 193.774 68.59 218.947 125.128 250 125.128 C 281.053 125.128 306.226 68.59 306.226 125.128 C 306.226 181.667 281.053 227.5 250 227.5 C 218.947 227.5 193.774 181.667 193.774 125.128 L 193.774 125.128 Z"/><path fill="#FFF" fill-rule="evenodd" d="M 193.774 374.872 C 193.774 431.41 218.947 374.872 250 374.872 C 281.053 374.872 306.226 431.41 306.226 374.872 C 306.226 318.333 281.053 272.5 250 272.5 C 218.947 272.5 193.774 318.333 193.774 374.872 L 193.774 374.872 Z"/><path fill="#FFF" fill-rule="evenodd" d="M 374.834 193.774 C 431.373 193.774 374.834 218.947 374.834 250 C 374.834 281.053 431.373 306.226 374.834 306.226 C 318.296 306.226 272.463 281.053 272.463 250 C 272.463 218.947 318.296 193.774 374.834 193.774 L 374.834 193.774 Z"/><path fill="#FFF" fill-rule="evenodd" d="M 125.166 306.226 C 68.627 306.226 125.166 281.053 125.166 250 C 125.166 218.947 68.627 193.774 125.166 193.774 C 181.704 193.774 227.537 218.947 227.537 250 C 227.537 281.053 181.704 306.226 125.166 306.226 L 125.166 306.226 Z"/><ellipse cx="250" cy="193.75" fill="#F16272" rx="14.994" ry="15" vector-effect="non-scaling-stroke"/><ellipse cx="306.226" cy="250" fill="#F16272" rx="14.994" ry="15" vector-effect="non-scaling-stroke"/><ellipse cx="193.774" cy="250" fill="#F16272" rx="14.994" ry="15" vector-effect="non-scaling-stroke"/><ellipse cx="250" cy="306.25" fill="#F16272" rx="14.994" ry="15" vector-effect="non-scaling-stroke"/></g></g></g></svg>