<svg xmlns="http://www.w3.org/2000/svg" xmlns:svg="http://www.w3.org/2000/svg" id="svg2" width="500" height="500" version="1.1" viewBox="0 0 500 500"><metadata id="metadata28"/><title id="title4">Group</title><desc id="desc6">Created with Sketch.</desc><g id="Page-1" fill="none" fill-rule="evenodd" stroke="none" stroke-width="1"><g id="Artboard-13"><path style="fill:#80cbc4" id="Oval-21" d="M 250 0 C 111.92881 0 0 111.92881 0 250 C 0 388.07119 111.92881 500 250 500 C 388.07119 500 500 388.07119 500 250 C 500 111.92881 388.07119 0 250 0 z M 141.5 74 A 12.5 12.5 0 0 1 154 86.5 A 12.5 12.5 0 0 1 141.5 99 A 12.5 12.5 0 0 1 129 86.5 A 12.5 12.5 0 0 1 141.5 74 z M 356.5 74 A 12.5 12.5 0 0 1 369 86.5 A 12.5 12.5 0 0 1 356.5 99 A 12.5 12.5 0 0 1 344 86.5 A 12.5 12.5 0 0 1 356.5 74 z M 147 129 A 50 50 0 0 1 197 179 A 50 50 0 0 1 164 225.97266 L 164 366 C 164 370.432 160.432 374 156 374 L 137 374 C 132.568 374 129 370.432 129 366 L 129 225.58984 A 50 50 0 0 1 97 179 A 50 50 0 0 1 147 129 z M 241 129 L 260 129 C 264.432 129 268 132.568 268 137 L 268 277.41016 A 50 50 0 0 1 300 324 A 50 50 0 0 1 250 374 A 50 50 0 0 1 200 324 A 50 50 0 0 1 233 277.02734 L 233 137 C 233 132.568 236.568 129 241 129 z M 356 129 A 50 50 0 0 1 406 179 A 50 50 0 0 1 374 225.64062 L 374 366 C 374 370.432 370.432 374 366 374 L 347 374 C 342.568 374 339 370.432 339 366 L 339 225.95508 A 50 50 0 0 1 306 179 A 50 50 0 0 1 356 129 z M 147 154 A 25 25 0 0 0 122 179 A 25 25 0 0 0 147 204 A 25 25 0 0 0 172 179 A 25 25 0 0 0 147 154 z M 356 154 A 25 25 0 0 0 331 179 A 25 25 0 0 0 356 204 A 25 25 0 0 0 381 179 A 25 25 0 0 0 356 154 z M 250 299 A 25 25 0 0 0 225 324 A 25 25 0 0 0 250 349 A 25 25 0 0 0 275 324 A 25 25 0 0 0 250 299 z M 250.5 405 A 12.5 12.5 0 0 1 263 417.5 A 12.5 12.5 0 0 1 250.5 430 A 12.5 12.5 0 0 1 238 417.5 A 12.5 12.5 0 0 1 250.5 405 z"/></g></g></svg>