<svg xmlns="http://www.w3.org/2000/svg" xmlns:svg="http://www.w3.org/2000/svg" id="svg2" width="500" height="500" version="1.1" viewBox="0 0 500 500"><metadata id="metadata22"/><title id="title4">Group</title><desc id="desc6">Created with Sketch.</desc><g style="fill:none;fill-rule:evenodd;stroke:none;stroke-width:1" id="Group"><path id="Oval-20" d="M 250,500 C 388.07119,500 500,388.07119 500,250 500,111.92881 388.07119,0 250,0 111.92881,0 0,111.92881 0,250 0,388.07119 111.92881,500 250,500 Z" style="fill:#ff872e"/><ellipse id="Oval-42" cx="250" cy="188" r="100" style="fill:#fff"/><path style="fill:#fff;fill-rule:evenodd;stroke:none;stroke-width:1.4515003" id="Oval-43-8" d="M 250,117.26996 A 145.15,145.15 0 0 0 104.85,262.42 145.15,145.15 0 0 0 168.87768,382.73004 l 56.74456,-89.4686 A 36.2875,36.2875 0 0 1 213.7125,266.43991 36.2875,36.2875 0 0 1 250,230.15241 a 36.2875,36.2875 0 0 1 36.2875,36.2875 36.2875,36.2875 0 0 1 -11.90677,26.82436 l 56.69944,89.39493 A 145.15,145.15 0 0 0 395.15,262.42 145.15,145.15 0 0 0 250,117.26996 Z"/></g></svg>