<svg xmlns="http://www.w3.org/2000/svg" xmlns:svg="http://www.w3.org/2000/svg" id="svg2" width="10000" height="10000" version="1.1" viewBox="0 0 10000 10000"><metadata id="metadata23"/><title id="title4">Artboard 1</title><desc id="desc6">Created with Sketch.</desc><g id="Page-1" fill="none" fill-rule="evenodd" stroke="none" stroke-width="1"><g id="Logo" transform="translate(-1,0)"><g id="g4154"><path id="Oval-2-Copy-3" d="m 3124.6459,837.60588 c 0,-1884.61328 839.1024,0 1874.1878,0 1035.0853,0 1874.1878,-1884.61328 1874.1878,0 C 6873.0215,2722.2191 6033.919,4250 4998.8337,4250 3963.7483,4250 3124.6459,2722.2191 3124.6459,837.60588 l 0,0 z" style="fill:#fff;fill-opacity:1"/><path id="Oval-2-Copy-4" d="m 3124.6459,6587.6059 c 0,-1884.6133 839.1024,0 1874.1878,0 1035.0853,0 1874.1878,-1884.6133 1874.1878,0 C 6873.0215,8472.2191 6033.919,10000 4998.8337,10000 3963.7483,10000 3124.6459,8472.2191 3124.6459,6587.6059 l 0,0 z" transform="matrix(1,0,0,-1,0,15750)" style="fill:#fff;fill-opacity:1"/><path id="Oval-2-Copy-6" d="m 5998.4005,3712.6059 c 0,-1884.6132 839.1024,0 1874.1878,0 1035.0853,0 1874.1878,-1884.6132 1874.1878,0 C 9746.7761,5597.2191 8907.6736,7125 7872.5883,7125 6837.5029,7125 5998.4005,5597.2191 5998.4005,3712.6059 l 0,0 z" transform="matrix(0,1,-1,0,12872.588,-2872.5883)" style="fill:#fff;fill-opacity:1"/><path id="Oval-2-Copy-5" d="m 250.89127,3712.6059 c 0,-1884.6132 839.10243,0 1874.18783,0 1035.0853,0 1874.1878,-1884.6132 1874.1878,0 C 3999.2669,5597.2191 3160.1644,7125 2125.0791,7125 1089.9937,7125 250.89127,5597.2191 250.89127,3712.6059 l 0,0 z" transform="matrix(0,-1,1,0,-2874.9209,7125.0791)" style="fill:#fff;fill-opacity:1"/><ellipse id="Oval-13-Copy" cx="4998.833" cy="3125" rx="499.783" ry="500" style="fill:#f16272;fill-opacity:1"/><ellipse id="Oval-13-Copy-3" cx="6873.021" cy="5000" rx="499.783" ry="500" style="fill:#f16272;fill-opacity:1"/><ellipse id="Oval-13-Copy-4" cx="3124.646" cy="5000" rx="499.783" ry="500" style="fill:#f16272;fill-opacity:1"/><ellipse id="Oval-13-Copy-2" cx="4998.833" cy="6875" rx="499.783" ry="500" style="fill:#f16272;fill-opacity:1"/></g></g></g></svg>