<svg xmlns="http://www.w3.org/2000/svg" xmlns:xlink="http://www.w3.org/1999/xlink" width="7680" height="4320" version="1.1" viewBox="0 0 7680 4320"><title>Rectangle 1 + Logo + Monogatari + All stories should b</title><desc>Created with Sketch.</desc><g id="Page-2" fill="none" fill-rule="evenodd" stroke="none" stroke-width="1"><g id="Rectangle-1-+-Logo-+-Monogatari-+-All-stories-should-b"><rect id="Rectangle-1" width="7680" height="4320" x="0" y="0" fill="#F7F6F6"/><g id="Logo" transform="translate(172.000000, 693.000000)"><path id="Oval-2-Copy-3" fill="#F16272" d="M781.317734,209.40147 C781.317734,-261.751838 991.135311,209.40147 1249.95841,209.40147 C1508.78151,209.40147 1718.59909,-261.751838 1718.59909,209.40147 C1718.59909,680.554778 1508.78151,1062.5 1249.95841,1062.5 C991.135311,1062.5 781.317734,680.554778 781.317734,209.40147 L781.317734,209.40147 Z"/><path id="Oval-2-Copy-4" fill="#F16272" d="M781.317734,1646.90147 C781.317734,1175.74816 991.135311,1646.90147 1249.95841,1646.90147 C1508.78151,1646.90147 1718.59909,1175.74816 1718.59909,1646.90147 C1718.59909,2118.05478 1508.78151,2500 1249.95841,2500 C991.135311,2500 781.317734,2118.05478 781.317734,1646.90147 L781.317734,1646.90147 Z" transform="translate(1249.958410, 1968.750000) scale(1, -1) translate(-1249.958410, -1968.750000)"/><path id="Oval-2-Copy-6" fill="#F16272" d="M1499.9001,928.15147 C1499.9001,456.998162 1709.71768,928.15147 1968.54078,928.15147 C2227.36388,928.15147 2437.18145,456.998162 2437.18145,928.15147 C2437.18145,1399.30478 2227.36388,1781.25 1968.54078,1781.25 C1709.71768,1781.25 1499.9001,1399.30478 1499.9001,928.15147 L1499.9001,928.15147 Z" transform="translate(1968.540779, 1250.000000) scale(-1, -1) rotate(270.000000) translate(-1968.540779, -1250.000000)"/><path id="Oval-2-Copy-5" fill="#F16272" d="M62.7353651,928.15147 C62.7353651,456.998162 272.552942,928.15147 531.376041,928.15147 C790.199139,928.15147 1000.01672,456.998162 1000.01672,928.15147 C1000.01672,1399.30478 790.199139,1781.25 531.376041,1781.25 C272.552942,1781.25 62.7353651,1399.30478 62.7353651,928.15147 L62.7353651,928.15147 Z" transform="translate(531.376041, 1250.000000) rotate(270.000000) translate(-531.376041, -1250.000000)"/><ellipse id="Oval-13-Copy" cx="1249.958" cy="781.25" fill="#FFF" rx="124.971" ry="125"/><ellipse id="Oval-13-Copy-3" cx="1718.599" cy="1250" fill="#FFF" rx="124.971" ry="125"/><ellipse id="Oval-13-Copy-4" cx="781.318" cy="1250" fill="#FFF" rx="124.971" ry="125"/><ellipse id="Oval-13-Copy-2" cx="1249.958" cy="1718.75" fill="#FFF" rx="124.971" ry="125"/></g><g id="Monogatari-+-All-stories-should-b" fill="#696969" font-family="Lato" font-weight="normal" transform="translate(2520.000000, 1643.000000)"><text id="Monogatari" font-size="700"><tspan x="601" y="691">Monogatari</tspan></text><text id="Every-story-should-b" font-size="200"><tspan x="0" y="1037">Every story should be told before they are lost forever.</tspan></text></g></g></g></svg>